<?xml version="1.0" encoding="iso-8859-1"?>
<!-- Uploaded to: SVG Repo, www.svgrepo.com, Generator: SVG Repo Mixer Tools -->
<svg height="800px" width="800px" version="1.1" id="Layer_1" xmlns="http://www.w3.org/2000/svg" xmlns:xlink="http://www.w3.org/1999/xlink" 
	 viewBox="0 0 511.999 511.999" xml:space="preserve">
<path style="fill:#0E4151;" d="M445.972,321.673c-9.141,0-16.551-7.411-16.551-16.551V111.12c0-9.141,7.411-16.551,16.551-16.551
	c9.141,0,16.551,7.411,16.551,16.551v194.002C462.523,314.263,455.114,321.673,445.972,321.673z"/>
<path style="fill:#144F66;" d="M445.972,321.673c-9.141,0-16.551-7.411-16.551-16.551V111.12c0-9.141,7.411-16.551,16.551-16.551
	V321.673z"/>
<path style="fill:#0E4151;" d="M66.17,321.673c-9.141,0-16.551-7.411-16.551-16.551V111.12c0-9.141,7.411-16.551,16.551-16.551
	s16.551,7.411,16.551,16.551v194.002C82.721,314.263,75.31,321.673,66.17,321.673z"/>
<path style="fill:#144F66;" d="M66.17,321.673c-9.141,0-16.551-7.411-16.551-16.551V111.12c0-9.141,7.411-16.551,16.551-16.551
	V321.673z"/>
<path style="fill:#BC2A46;" d="M463.232,95.842l-200.865-83.7c-4.075-1.698-8.658-1.698-12.732,0l-200.865,83.7
	c-6.168,2.57-10.185,8.596-10.185,15.278v60.096c0,9.141,7.411,16.551,16.551,16.551h401.73c9.141,0,16.551-7.411,16.551-16.551
	V111.12C473.417,104.437,469.4,98.412,463.232,95.842z"/>
<path style="fill:#D62D46;" d="M256.001,10.869c-2.165,0-4.329,0.425-6.367,1.273l-200.865,83.7
	c-6.168,2.57-10.185,8.596-10.185,15.278v60.096c0,9.141,7.411,16.551,16.551,16.551h200.865V10.869z"/>
<path style="fill:#0E4151;" d="M397.084,468.028h-83.807V172.87H198.723v295.158h-83.807c-9.141,0-16.551,7.411-16.551,16.551
	c0,9.141,7.411,16.551,16.551,16.551h282.168c9.141,0,16.551-7.411,16.551-16.551C413.636,475.439,406.225,468.028,397.084,468.028z
	"/>
<path style="fill:#144F66;" d="M198.723,172.87v295.158h-83.807c-9.141,0-16.551,7.411-16.551,16.551
	c0,9.141,7.411,16.551,16.551,16.551H256v-23.726h0.001V172.87H198.723z"/>
<path style="fill:#EABD81;" d="M402.178,327.515c-7.989,0.001-15.02-5.797-16.323-13.939l-4.031-25.192l-12.354,6.894
	c-7.982,4.455-18.064,1.594-22.519-6.388c-4.455-7.982-1.594-18.064,6.388-22.519l33.025-18.428
	c4.721-2.633,10.426-2.797,15.288-0.438c4.862,2.358,8.267,6.941,9.121,12.277l7.77,48.565c1.444,9.027-4.703,17.515-13.728,18.959
	C403.928,327.446,403.047,327.515,402.178,327.515z"/>
<path style="fill:#DBAD75;" d="M109.821,327.515c-0.87,0-1.75-0.068-2.636-0.21c-9.026-1.444-15.172-9.932-13.728-18.959
	l7.77-48.565c0.853-5.336,4.258-9.919,9.121-12.277c4.862-2.357,10.57-2.195,15.288,0.438l33.025,18.428
	c7.982,4.455,10.842,14.537,6.388,22.519c-4.456,7.981-14.538,10.842-22.519,6.388l-12.354-6.894l-4.031,25.192
	C124.842,321.716,117.81,327.515,109.821,327.515z"/>
<path style="fill:#BC2A46;" d="M198.723,407.541v32.829c0.666,0.082,1.341,0.137,2.03,0.137h112.525v-33.103H200.753
	C200.064,407.404,199.389,407.46,198.723,407.541z"/>
<path style="fill:#DBAD75;" d="M198.723,341.662v32.829c0.666,0.082,1.341,0.137,2.03,0.137h112.525v-33.103H200.753
	C200.064,341.525,199.389,341.58,198.723,341.662z"/>
<path style="fill:#BC2A46;" d="M313.278,308.749v-33.103H200.753c-0.689,0-1.363,0.055-2.03,0.137v32.829
	c0.666,0.082,1.341,0.137,2.03,0.137H313.278z"/>
<g>
	<path style="fill:#D62D46;" d="M256.001,308.749v-33.103h-55.248c-0.689,0-1.363,0.055-2.03,0.137v32.829
		c0.666,0.082,1.341,0.137,2.03,0.137H256.001z"/>
	<path style="fill:#D62D46;" d="M256.001,440.507v-33.103h-55.248c-0.689,0-1.363,0.055-2.03,0.137v32.829
		c0.666,0.082,1.341,0.137,2.03,0.137H256.001z"/>
</g>
<path style="fill:#DBAD75;" d="M313.278,242.87v-33.103H200.753c-0.689,0-1.363,0.055-2.03,0.137v32.829
	c0.666,0.082,1.341,0.137,2.03,0.137L313.278,242.87L313.278,242.87z"/>
<g>
	<path style="fill:#EABD81;" d="M256.001,242.87v-33.103h-55.248c-0.689,0-1.363,0.055-2.03,0.137v32.829
		c0.666,0.082,1.341,0.137,2.03,0.137L256.001,242.87L256.001,242.87z"/>
	<path style="fill:#EABD81;" d="M256.001,374.628v-33.103h-55.248c-0.689,0-1.363,0.055-2.03,0.137v32.829
		c0.666,0.082,1.341,0.137,2.03,0.137H256.001z"/>
</g>
<path style="fill:#39B7B6;" d="M38.583,117.408v53.808c0,9.141,7.411,16.551,16.551,16.551h401.731
	c9.141,0,16.551-7.411,16.551-16.551v-53.808C473.417,117.408,38.583,117.408,38.583,117.408z"/>
<path style="fill:#66CBC4;" d="M38.583,117.408v53.808c0,9.141,7.411,16.551,16.551,16.551h200.866l-0.012-70.359
	C255.989,117.408,38.583,117.408,38.583,117.408z"/>
<path style="fill:#BC2A46;" d="M127.284,378.997c-6.895,0-13.331-4.342-15.671-11.234l-10.782-31.746
	c-18.506,8.189-35.653,6.586-48.059,3.012c-3.635-1.046-7.006-2.303-10.072-3.644L32.093,364.26
	c-3.151,8.579-12.66,12.983-21.243,9.829c-8.58-3.151-12.982-12.664-9.829-21.243l17.484-47.594
	c1.899-5.168,6.143-9.142,11.489-10.456c5.331-1.306,10.864,0.023,14.936,3.697c3.026,2.553,27.699,21.941,54.266-0.239
	c4.188-3.498,9.83-4.704,15.084-3.23c5.253,1.476,9.442,5.447,11.195,10.613l17.484,51.479c2.94,8.655-1.694,18.054-10.35,20.994
	C130.843,378.712,129.048,378.997,127.284,378.997z"/>
<g>
	<path style="fill:#D62D46;" d="M66.17,341.613c-4.885-0.479-9.389-1.428-13.398-2.583c-3.635-1.046-7.006-2.303-10.072-3.644
		l-10.607,28.875c-3.151,8.579-12.66,12.983-21.243,9.829c-8.58-3.151-12.982-12.664-9.829-21.243l17.484-47.594
		c1.899-5.168,6.143-9.142,11.489-10.456c5.331-1.306,10.864,0.023,14.936,3.697c1.66,1.4,9.827,7.862,21.248,9.757L66.17,341.613z"
		/>
	<path style="fill:#D62D46;" d="M384.716,378.997c6.895,0,13.331-4.342,15.671-11.234l10.782-31.746
		c18.506,8.189,35.653,6.586,48.059,3.012c3.635-1.046,7.006-2.303,10.072-3.644l10.607,28.875
		c3.151,8.579,12.66,12.983,21.243,9.829c8.58-3.151,12.982-12.664,9.829-21.243l-17.484-47.594
		c-1.899-5.168-6.143-9.142-11.489-10.456c-5.331-1.306-10.864,0.023-14.936,3.697c-3.026,2.553-27.699,21.941-54.266-0.239
		c-4.188-3.498-9.83-4.704-15.084-3.23c-5.253,1.476-9.442,5.447-11.195,10.613l-17.484,51.479
		c-2.94,8.655,1.694,18.054,10.35,20.994C381.157,378.712,382.953,378.997,384.716,378.997z"/>
</g>
<path style="fill:#BC2A46;" d="M445.83,341.613c4.885-0.479,9.389-1.428,13.398-2.583c3.635-1.046,7.006-2.303,10.072-3.644
	l10.607,28.875c3.151,8.579,12.66,12.983,21.243,9.829c8.58-3.151,12.982-12.664,9.829-21.243l-17.484-47.594
	c-1.899-5.168-6.143-9.142-11.489-10.456c-5.331-1.306-10.864,0.023-14.936,3.697c-1.66,1.4-9.827,7.862-21.248,9.757
	L445.83,341.613z"/>
</svg>